<svg width="80" height="80" viewBox="0 0 80 80" fill="none" xmlns="http://www.w3.org/2000/svg">
<circle cx="40" cy="40" r="40" fill="#DBB961"/>
<path d="M22.275 25C21.0188 25 20 26.0219 20 27.275V48.2C20 49.4531 21.1438 50.6 22.4 50.6H25.675C26.0563 52.8688 28.025 54.6 30.4 54.6C32.775 54.6 34.7438 52.8688 35.125 50.6H42.525C43.7781 50.6 44.8 49.5781 44.8 48.325V27.325C44.8 26.0438 43.7906 25 42.55 25H22.275ZM46.4 30.6V50.6C46.7844 52.8656 48.825 54.6 51.2 54.6C53.575 54.6 55.5438 52.8656 55.925 50.6H57.6C58.8563 50.6 60 49.4563 60 48.2V40.5C60 38.8906 58.8406 37.2469 58.7 37.05L55.375 32.6C54.6125 31.6813 53.4156 30.6 52 30.6H46.4ZM50.4 34.6H54.875L57.425 38C57.6969 38.3844 58.4 39.5625 58.4 40.5V41H50.4C49.6 41 48.8 40.2 48.8 39.4V36.2C48.8 35.3156 49.6 34.6 50.4 34.6ZM30.4 46.6C32.1656 46.6 33.6 48.0344 33.6 49.8C33.6 51.5656 32.1656 53 30.4 53C28.6344 53 27.2 51.5656 27.2 49.8C27.2 48.0344 28.6344 46.6 30.4 46.6ZM51.2 46.6C52.9656 46.6 54.4 48.0344 54.4 49.8C54.4 51.5656 52.9656 53 51.2 53C49.4344 53 48 51.5656 48 49.8C48 48.0344 49.4344 46.6 51.2 46.6Z" fill="white"/>
</svg>
