<svg width="80" height="80" viewBox="0 0 80 80" fill="none" xmlns="http://www.w3.org/2000/svg">
<circle cx="40" cy="40" r="40" fill="#DBB961"/>
<path d="M42.2222 42.6667L28.8888 29.3333L42.2222 16V25.0109C52.222 26.1164 60 34.5944 60 44.8888C60 55.9346 51.0458 64.8888 40 64.8888C28.9542 64.8888 20 55.9346 20 44.8888C20 40.9367 21.1464 37.2524 23.1246 34.15L29.6873 38.3263C28.4783 40.2222 27.7778 42.4737 27.7778 44.8888C27.7778 51.639 33.2498 57.1112 40 57.1112C46.7502 57.1112 52.2222 51.639 52.2222 44.8888C52.2222 38.8977 47.9113 33.9133 42.2222 32.8682V42.6667Z" fill="white"/>
</svg>
