<svg width="80" height="80" viewBox="0 0 80 80" fill="none" xmlns="http://www.w3.org/2000/svg">
<circle cx="40" cy="40" r="40" fill="#DBB961"/>
<path d="M21.5034 53.1968C20.6835 53.1968 20.0035 52.5169 20.0035 51.6969V40.2981C19.9036 34.8785 21.9234 29.759 25.683 25.9194C29.4426 22.0998 34.4821 20 39.9016 20C50.9805 20 59.9996 29.0191 59.9996 40.0981V51.497C59.9996 52.3169 59.3197 52.9968 58.4997 52.9968C57.6798 52.9968 56.9999 52.3169 56.9999 51.497V40.0981C56.9999 30.679 49.3406 22.9997 39.9016 22.9997C35.282 22.9997 31.0025 24.7795 27.8228 28.0192C24.6231 31.2789 22.9233 35.6185 23.0032 40.2581V51.6769C23.0032 52.5169 22.3433 53.1968 21.5034 53.1968Z" fill="white"/>
<path d="M27.8831 40.7948H27.6232C23.4236 40.7948 20.0039 44.2145 20.0039 48.4141V52.1737C20.0039 56.3733 23.4236 59.7929 27.6232 59.7929H27.8831C32.0827 59.7929 35.5024 56.3733 35.5024 52.1737V48.4141C35.5024 44.2145 32.0827 40.7948 27.8831 40.7948Z" fill="white"/>
<path d="M52.3807 40.7948H52.1207C47.9211 40.7948 44.5015 44.2145 44.5015 48.4141V52.1737C44.5015 56.3733 47.9211 59.7929 52.1207 59.7929H52.3807C56.5803 59.7929 60 56.3733 60 52.1737V48.4141C60 44.2145 56.5803 40.7948 52.3807 40.7948Z" fill="white"/>
</svg>
