<svg width="27" height="27" viewBox="0 0 27 27" fill="none" xmlns="http://www.w3.org/2000/svg">
<path d="M26 13.5C26 20.3894 20.4174 25.9999 13.5 25.9999C6.58258 25.9999 1 20.3894 1 13.5C1 6.6105 6.58258 0.999939 13.5 0.999939C20.4174 0.999939 26 6.6105 26 13.5Z" stroke="black" stroke-width="1.5"/>
<path d="M7.00353 8.525C6.943 7.66742 7.66918 7 8.52713 7H10.3636C10.804 7 11.2012 7.26536 11.3706 7.67272L12.1386 9.51968C12.3257 9.96959 12.1929 10.4893 11.8131 10.7938L11.3344 11.1775C11.1207 11.3488 11.0481 11.6441 11.1748 11.8869C11.8257 13.1345 12.7878 14.1933 13.9578 14.96C14.2048 15.1218 14.531 15.0575 14.7153 14.8267L15.2141 14.2018C15.518 13.8212 16.0365 13.6882 16.4855 13.8756L18.3287 14.6452C18.7352 14.8149 19 15.213 19 15.6543V17.5C19 18.3597 18.3093 19.0573 17.4536 18.9965C11.9813 18.6071 7.39148 14.021 7.00353 8.525Z" fill="black"/>
</svg>
