<svg width="25" height="27" viewBox="0 0 25 27" fill="none" xmlns="http://www.w3.org/2000/svg">
<path d="M18.1657 26.059C16.4735 26.0416 15.1116 25.6186 13.7903 25.0333C9.39749 23.0978 5.90877 20.0729 3.17342 16.1497C2.02596 14.4982 1.09873 12.7423 0.478636 10.83C0.101946 9.67682 -0.106683 8.49466 0.0555839 7.27194C0.148308 6.58814 0.385912 5.9507 0.855326 5.44654C1.57973 4.65844 2.30993 3.87612 3.10967 3.16335C4.19338 2.2014 5.40458 2.21299 6.45931 3.20392C7.5662 4.2412 8.63832 5.33065 9.67566 6.44327C10.5449 7.38204 10.5218 8.63374 9.67566 9.5899C9.13671 10.1926 8.55139 10.7547 7.97766 11.3226C7.85017 11.4501 7.82119 11.5428 7.90232 11.7108C8.50503 12.9162 9.34534 13.9419 10.2494 14.9154C11.1998 15.9353 12.243 16.8451 13.4194 17.5985C13.7091 17.7839 14.0279 17.9288 14.3234 18.1084C14.4741 18.1953 14.5552 18.1548 14.6712 18.0447C15.2507 17.4652 15.8186 16.8741 16.4329 16.3294C17.3775 15.4949 18.6351 15.4891 19.5507 16.3526C20.6402 17.3783 21.6834 18.4445 22.7265 19.5108C23.7871 20.5886 23.7523 22.0142 22.6222 23.1616C22.0833 23.7121 21.5385 24.2626 20.9995 24.8131C20.1592 25.6824 19.1451 26.1112 18.1657 26.059ZM17.9049 24.6567C18.7916 24.6567 19.4638 24.3901 20.0144 23.8048C20.5012 23.2833 21.0111 22.7849 21.5095 22.2749C21.6254 22.159 21.7413 22.0374 21.8341 21.9099C22.1528 21.481 22.1412 21.0522 21.8109 20.635C21.7297 20.5307 21.6312 20.4322 21.5385 20.3394C20.6344 19.4296 19.7246 18.5256 18.8205 17.6216C18.2062 17.0074 17.7368 17.0074 17.1109 17.6216C16.5372 18.1895 15.9693 18.769 15.3898 19.3369C14.9493 19.7715 14.5089 19.8179 13.9699 19.5513C12.44 18.798 11.0955 17.7897 9.89009 16.5959C8.5456 15.2689 7.31701 13.8549 6.51726 12.1165C6.17535 11.3747 6.24489 11.0154 6.83021 10.4418C7.41553 9.87385 8.00664 9.30016 8.56878 8.70908C8.99762 8.25707 8.98024 7.81087 8.58037 7.33568C8.52242 7.27194 8.46446 7.20819 8.40651 7.14445C7.47348 6.19988 6.54624 5.2669 5.60741 4.33392C5.03948 3.77182 4.51791 3.76023 3.94418 4.31654C3.35886 4.89023 2.78514 5.47552 2.20561 6.05501C1.71302 6.54758 1.46962 7.14445 1.43485 7.83984C1.38269 8.99303 1.69563 10.0709 2.1013 11.1313C3.24296 14.0983 5.05687 16.6191 7.27644 18.8617C9.57715 21.1855 12.2487 22.9645 15.3202 24.1177C16.1837 24.4364 17.082 24.6161 17.9049 24.6567Z" fill="#DBB961"/>
<path d="M13.8942 0.996094C14.607 1.18734 15.3372 1.33801 16.0327 1.57562C19.4229 2.75784 21.9554 4.96003 23.6592 8.11264C24.314 9.32384 24.7313 10.622 24.9805 11.9781C25.0674 12.4475 24.853 12.7952 24.4415 12.8821C24.0533 12.9632 23.7171 12.7256 23.5954 12.2852C23.3636 11.4739 23.1956 10.6336 22.8826 9.8512C21.8916 7.33608 20.1936 5.40047 17.8929 3.99802C16.6817 3.25623 15.372 2.75784 13.9754 2.49706C13.8826 2.47967 13.7841 2.46229 13.6914 2.43331C13.3089 2.329 13.0829 1.99867 13.1408 1.63357C13.193 1.27426 13.4712 1.05405 13.8942 0.996094Z" fill="#DBB961"/>
<path d="M13.68 5.51099C14.3175 5.71382 14.9839 5.8587 15.5924 6.13108C18.2582 7.32489 19.8809 9.37641 20.4604 12.245C20.5416 12.6333 20.304 13.0042 19.9389 13.0911C19.5274 13.1897 19.1855 12.9521 19.0464 12.5116C18.8609 11.9089 18.7277 11.2714 18.4495 10.7093C17.4875 8.76211 15.9286 7.53932 13.8075 7.04672C13.6742 7.01775 13.5409 6.99457 13.4134 6.954C13.0657 6.84389 12.8803 6.51936 12.9382 6.16005C13.002 5.81813 13.3033 5.57473 13.68 5.51099Z" fill="#DBB961"/>
</svg>
