<svg width="50" height="50" viewBox="0 0 50 50" fill="none" xmlns="http://www.w3.org/2000/svg">
<circle cx="25" cy="25" r="25" fill="#D9D9D9"/>
<path d="M21.1973 19.2353C21.1269 19.2353 21.0561 19.2129 20.9961 19.1668C20.8522 19.0555 20.8255 18.8487 20.9368 18.7048L23.2946 15.6535L21.6626 13.3452H17.5125L15.8802 15.6535L18.2379 18.7048C18.3489 18.8487 18.3226 19.0555 18.1787 19.1668C18.0348 19.2778 17.8283 19.2514 17.7167 19.1075L15.2104 15.8636C15.1218 15.749 15.1185 15.5903 15.2021 15.4724L17.0732 12.8262C17.1351 12.7389 17.2352 12.6869 17.3419 12.6869H21.8325C21.9396 12.6869 22.0397 12.7389 22.1012 12.8262L23.9723 15.4724C24.0559 15.5903 24.0527 15.7494 23.9641 15.8636L21.4578 19.1075C21.3933 19.1915 21.2958 19.2353 21.1973 19.2353Z" fill="black"/>
<path d="M23.7046 15.9914H15.4719C15.2901 15.9914 15.1426 15.8438 15.1426 15.6621C15.1426 15.4803 15.2901 15.3328 15.4719 15.3328H23.7046C23.8864 15.3328 24.0339 15.4803 24.0339 15.6621C24.0339 15.8438 23.8864 15.9914 23.7046 15.9914Z" fill="black"/>
<path d="M19.5882 15.9914C19.4917 15.9914 19.3995 15.9489 19.3369 15.8752L17.0918 13.2289C16.9742 13.0903 16.9913 12.8825 17.13 12.7646C17.2689 12.6474 17.4767 12.6642 17.5943 12.8028L19.5885 15.1533L21.5827 12.8028C21.7003 12.6642 21.9081 12.6471 22.047 12.7646C22.1857 12.8822 22.2028 13.0903 22.0852 13.2289L19.8397 15.8752C19.7768 15.9489 19.685 15.9914 19.5882 15.9914Z" fill="black"/>
<path d="M30.3788 35.5434C28.8568 35.5434 27.3852 35.0991 26.1237 34.2591C25.9725 34.1583 25.9313 33.9538 26.0324 33.8024C26.1332 33.6509 26.337 33.6101 26.4892 33.7111C27.642 34.4791 28.9872 34.8848 30.3792 34.8848C34.2547 34.8848 37.4073 31.7321 37.4073 27.8566C37.4073 23.9811 34.2547 20.8284 30.3792 20.8284C28.9872 20.8284 27.642 21.2341 26.4892 22.002C25.985 22.3379 25.525 22.7377 25.1226 23.1908C23.9799 24.477 23.351 26.134 23.351 27.8562C23.351 29.6338 24.0165 31.3307 25.2243 32.6337C25.3478 32.7671 25.3399 32.9752 25.2066 33.099C25.0735 33.2228 24.8651 33.2152 24.7413 33.0812C23.4201 31.656 22.6924 29.8004 22.6924 27.8562C22.6924 25.9723 23.3806 24.1602 24.6303 22.7535C25.0702 22.2582 25.5727 21.8209 26.124 21.4537C27.3859 20.6137 28.8572 20.1698 30.3792 20.1698C34.6175 20.1698 38.0659 23.6182 38.0659 27.8566C38.0659 32.095 34.6172 35.5434 30.3788 35.5434Z" fill="black"/>
<path d="M30.3789 37.2797C28.3419 37.2797 26.403 36.6406 24.7713 35.4307C24.6254 35.3224 24.5945 35.1159 24.7028 34.9701C24.8111 34.8242 25.0173 34.7936 25.1635 34.9016C26.6806 36.0268 28.4838 36.6215 30.3786 36.6215C35.2116 36.6212 39.1431 32.6893 39.1431 27.8569C39.1431 23.0245 35.2116 19.0923 30.3789 19.0923C25.5461 19.0923 21.6146 23.0242 21.6146 27.8569C21.6146 30.0513 22.4293 32.1509 23.9089 33.7688C24.0317 33.9028 24.0225 34.1112 23.8881 34.2341C23.7538 34.3562 23.5453 34.3474 23.4228 34.2133C21.832 32.474 20.9561 30.2163 20.9561 27.8569C20.9561 22.6613 25.1832 18.4341 30.3789 18.4341C35.5745 18.4341 39.8017 22.6609 39.8017 27.8569C39.8017 33.0529 35.5745 37.2797 30.3789 37.2797Z" fill="black"/>
<path d="M19.5881 35.5434C15.3498 35.5434 11.9014 32.095 11.9014 27.8566C11.9014 23.6182 15.3498 20.1698 19.5881 20.1698C21.1102 20.1698 22.5815 20.614 23.843 21.4537C23.9945 21.5545 24.0353 21.759 23.9345 21.9105C23.8334 22.0619 23.6293 22.1024 23.4778 22.002C22.3246 21.2341 20.9798 20.8284 19.5878 20.8284C15.7123 20.8284 12.5596 23.9811 12.5596 27.8566C12.5596 31.7321 15.7123 34.8848 19.5878 34.8848C23.4633 34.8848 26.616 31.7321 26.616 27.8566C26.616 26.0784 25.9505 24.3815 24.742 23.0785C24.6185 22.9451 24.6261 22.7367 24.7594 22.6129C24.8928 22.4894 25.1009 22.4969 25.225 22.6303C26.5468 24.0555 27.2749 25.9114 27.2749 27.8566C27.2749 32.0953 23.8265 35.5434 19.5881 35.5434Z" fill="black"/>
<path d="M19.5879 37.2797C14.3922 37.2797 10.165 33.0526 10.165 27.8569C10.165 22.6613 14.3922 18.4341 19.5879 18.4341C21.6177 18.4341 23.551 19.0693 25.179 20.2712C25.3255 20.3792 25.3565 20.5854 25.2485 20.7316C25.1401 20.8781 24.9347 20.9091 24.7881 20.8011C23.274 19.6831 21.4757 19.0927 19.5879 19.0927C14.7551 19.0923 10.8236 23.0242 10.8236 27.8569C10.8236 32.6897 14.7551 36.6212 19.5879 36.6212C24.4206 36.6212 28.3521 32.6893 28.3521 27.8569C28.3521 25.6654 27.5391 23.5678 26.0632 21.9503C25.9403 21.816 25.9499 21.6075 26.0842 21.485C26.2183 21.3628 26.4264 21.3721 26.5492 21.5061C28.1364 23.2451 29.0107 25.5005 29.0107 27.8566C29.0107 33.0526 24.7838 37.2797 19.5879 37.2797Z" fill="black"/>
</svg>
