<svg width="25" height="19" viewBox="0 0 25 19" fill="none" xmlns="http://www.w3.org/2000/svg">
<path d="M12.4945 0.993652C15.9519 0.993652 19.4094 0.993652 22.8613 0.993652C23.8586 0.993652 24.7174 1.67517 24.9557 2.6448C24.9945 2.79441 25 2.95509 25 3.11023C25 7.56502 25 12.0143 25 16.4691C25 17.6271 24.0525 18.5801 22.889 18.5856C20.5951 18.5912 18.3012 18.5856 16.0018 18.5856C11.3918 18.5856 6.78746 18.5856 2.17753 18.5856C1.24668 18.5856 0.576241 18.1368 0.182846 17.3112C0.0609486 17.0564 0.00554078 16.7461 0.00554078 16.458C0 12.0143 0 7.57056 0 3.12685C0 1.95221 0.947473 0.999193 2.12212 0.993652C4.62101 0.993652 7.1199 0.993652 9.61879 0.993652C10.5773 0.993652 11.5359 0.993652 12.4945 0.993652ZM2.53768 2.45642C2.62079 2.55061 2.66512 2.60602 2.71498 2.65589C5.74579 5.69777 8.7766 8.73966 11.8129 11.7816C12.2673 12.2359 12.7272 12.2414 13.1815 11.7871C16.2234 8.73966 19.2598 5.69223 22.2961 2.6448C22.346 2.59494 22.3792 2.53953 22.4457 2.46196C15.8023 2.45642 9.20324 2.45642 2.53768 2.45642ZM2.53214 17.1229C9.19769 17.1229 15.8078 17.1229 22.4235 17.1229C20.3236 15.0395 18.2347 12.9728 16.1514 10.9116C15.5142 11.5433 14.8437 12.2137 14.1678 12.8786C13.2092 13.8261 11.7852 13.8261 10.8267 12.8731C10.2172 12.2691 9.61879 11.6597 9.00931 11.0502C8.93728 10.9781 8.86525 10.9172 8.82646 10.8784C6.73759 12.9562 4.65426 15.0174 2.53214 17.1229ZM1.45723 3.57012C1.45723 7.70354 1.45723 11.8757 1.45723 16.0147C3.54056 13.948 5.63497 11.8702 7.73493 9.79241C5.62943 7.70908 3.53502 5.63129 1.45723 3.57012ZM23.5483 3.61444C21.4761 5.66453 19.3816 7.73678 17.3094 9.78687C19.3983 11.8591 21.4871 13.9369 23.5483 15.9815C23.5483 11.8702 23.5483 7.70354 23.5483 3.61444Z" fill="#DBB961"/>
</svg>
