<svg width="50" height="50" viewBox="0 0 50 50" fill="none" xmlns="http://www.w3.org/2000/svg">
<circle cx="25" cy="25" r="25" fill="#DBB961"/>
<g clipPath="url(#clip0_33_135)">
<path d="M39.3508 17.2625L34.6136 14.9021C34.5399 14.3967 34.6106 13.8499 34.6806 13.3144C34.7974 12.4199 34.9182 11.4948 34.3141 10.8067C33.8424 10.2694 33.0452 10.0192 31.8051 10.0192C29.8937 10.0192 28.4481 10.5852 27.384 11.2996L26.0173 10.6187C25.736 10.4785 25.3747 10.4014 25 10.4014C24.6253 10.4014 24.264 10.4786 23.9828 10.6187L22.435 11.3899C21.3595 10.6333 19.8735 10.0192 17.8821 10.0192C16.8486 10.0192 16.1158 10.2674 15.6418 10.778C14.9231 11.5522 15.0086 12.6985 15.0913 13.807C15.1217 14.2146 15.152 14.6277 15.1449 15.0224L10.6493 17.2625C10.2367 17.468 10 17.8049 10 18.1867C10 18.3294 10.0331 18.4656 10.0959 18.5912V31.3251C10.0959 32.0114 10.555 32.7679 11.1639 33.0848L23.9797 39.7538C24.2706 39.9052 24.6353 39.9808 25 39.9808C25.3647 39.9808 25.7296 39.9051 26.0204 39.7538L38.8361 33.0848C39.4449 32.7679 39.9041 32.0114 39.9041 31.325V18.5912C39.967 18.4656 40 18.3294 40 18.1867C40 17.8049 39.7634 17.468 39.3508 17.2625ZM23.0786 16.378C23.0786 15.4797 23.8704 14.7488 24.8437 14.7488C25.817 14.7488 26.6087 15.4796 26.6087 16.378C26.6087 17.2764 25.817 18.0072 24.8437 18.0072C23.8704 18.0072 23.0786 17.2763 23.0786 16.378ZM35.4284 16.6946L38.4232 18.1868L35.4478 19.6693C35.4513 19.6629 35.4557 19.6569 35.4592 19.6504C35.9122 18.82 35.895 17.7948 35.4284 16.6946ZM33.3815 11.6255C33.6149 11.8913 33.5348 12.5045 33.4501 13.1537C33.3247 14.1135 33.1687 15.3082 33.8592 16.3804C34.547 17.4484 34.7284 18.3988 34.3697 19.0563C33.9861 19.7596 32.9949 20.163 31.65 20.163C31.126 20.163 30.5606 20.101 29.9698 19.9789C28.6239 19.7007 27.609 19.1199 26.8861 18.4814C27.4782 17.9569 27.8497 17.2082 27.8497 16.378C27.8497 15.3516 27.2821 14.4498 26.4313 13.9423C26.5548 13.7685 26.6923 13.5924 26.8453 13.4169C27.7033 12.433 29.2603 11.2602 31.8051 11.2602C32.843 11.2602 33.2352 11.4588 33.3815 11.6255ZM24.5362 11.7295C24.6457 11.675 24.819 11.6425 25 11.6425C25.1809 11.6425 25.3543 11.6751 25.4638 11.7295L26.3271 12.1597C26.1752 12.3083 26.0362 12.4564 25.91 12.6012C25.642 12.9086 25.4114 13.2217 25.2136 13.5303C25.0922 13.5159 24.9689 13.5078 24.8436 13.5078C24.7182 13.5078 24.595 13.5159 24.4736 13.5303C24.2758 13.2217 24.0453 12.9085 23.7772 12.6012C23.6804 12.4902 23.5762 12.3772 23.4644 12.2636L24.5362 11.7295ZM16.329 13.7148C16.2632 12.8329 16.201 11.9998 16.5515 11.6223C16.7746 11.3821 17.2222 11.2602 17.8821 11.2602C20.427 11.2602 21.9839 12.433 22.842 13.4169C22.995 13.5924 23.1325 13.7685 23.256 13.9423C22.4052 14.4497 21.8376 15.3515 21.8376 16.378C21.8376 17.2082 22.2091 17.9569 22.8012 18.4814C22.0782 19.1198 21.0633 19.7007 19.7174 19.9789C18.9103 20.1458 18.1699 20.2304 17.5169 20.2304C16.3425 20.2304 15.5153 19.9488 15.2475 19.4579C14.9854 18.9773 15.1916 18.1683 15.8282 17.1799C16.5085 16.1232 16.4131 14.8437 16.329 13.7148ZM14.7124 16.6245C14.063 17.6678 13.7987 18.5827 13.9225 19.3556L11.5768 18.1868L14.7124 16.6245ZM15.1603 33.7654L11.7368 31.9839C11.5387 31.8808 11.3369 31.5483 11.3369 31.3251V19.4538L15.1603 21.3589V33.7654ZM24.3795 38.5629L16.4013 34.4112V21.9773L23.9827 25.7549C24.1021 25.8144 24.2364 25.8618 24.3794 25.8974V38.5629H24.3795ZM25 24.7312C24.8191 24.7312 24.6457 24.6986 24.5363 24.6441L18.1277 21.4509C18.7008 21.4145 19.3172 21.3289 19.9688 21.1942C21.7855 20.8186 23.0116 19.9963 23.7837 19.2693L24.102 19.158C24.3396 19.2159 24.5876 19.2482 24.8438 19.2482C25.0748 19.2482 25.2997 19.2227 25.516 19.1752L25.977 19.3364C26.7525 20.0464 27.9575 20.8302 29.7186 21.1943C30.392 21.3335 31.0418 21.4041 31.6501 21.4041C31.7273 21.4041 31.8026 21.4013 31.8782 21.3991L31.9361 21.4193L25.4639 24.6443C25.3544 24.6986 25.181 24.7312 25 24.7312ZM33.1672 34.6358L25.6206 38.5629V25.8974C25.7636 25.8617 25.898 25.8144 26.0173 25.7549L33.1672 22.1923V34.6358ZM38.6631 31.3251C38.6631 31.5484 38.4613 31.8808 38.2632 31.9839L34.4082 33.99V21.574L38.6631 19.4539V31.3251Z" fill="white"/>
</g>
<defs>
<clipPath id="clip0_33_135">
<rect width="30" height="30" fill="white" transform="translate(10 10)"/>
</clipPath>
</defs>
</svg>
