<svg width="27" height="27" viewBox="0 0 27 27" fill="none" xmlns="http://www.w3.org/2000/svg">
<path d="M26 13.5C26 20.3894 20.4174 26 13.5 26C6.58257 26 1 20.3894 1 13.5C1 6.61056 6.58257 1 13.5 1C20.4174 1 26 6.61056 26 13.5Z" stroke="black" stroke-width="0.9"/>
<path d="M6 11.5625L13.5 5L21 11.5625V20.9375H16.3125V17.1875C16.3125 16.4416 16.0162 15.7262 15.4887 15.1988C14.9613 14.6713 14.2459 14.375 13.5 14.375C12.754 14.375 12.0387 14.6713 11.5113 15.1988C10.9838 15.7262 10.6875 16.4415 10.6875 17.1875V20.9375H6.00001L6 11.5625Z" stroke="black" stroke-width="0.9" stroke-linecap="round" stroke-linejoin="round"/>
</svg>
