<svg width="30" height="29" viewBox="0 0 30 29" fill="none" xmlns="http://www.w3.org/2000/svg">
<path d="M29.4755 14.4895C29.4755 22.1998 23.0052 28.4789 14.9877 28.4789C6.97031 28.4789 0.5 22.1998 0.5 14.4895C0.5 6.77909 6.97031 0.5 14.9877 0.5C23.0052 0.5 29.4755 6.77909 29.4755 14.4895Z" stroke="#DBB961"/>
<g clipPath="url(#clip0_1_260)">
<path d="M7.45445 14.7117C6.97813 14.7117 6.54561 14.7117 6.10761 14.7117C5.69151 14.717 5.35207 14.5688 5.14402 14.2089C4.89217 13.7801 4.96334 13.325 5.34659 12.9809C6.22806 12.1976 7.12048 11.4195 8.00743 10.6361C10.0824 8.81007 12.152 6.984 14.227 5.15793C14.7252 4.71861 15.2618 4.71861 15.7655 5.16322C16.3677 5.69252 16.97 6.22711 17.5722 6.7564C17.6051 6.78287 17.6379 6.80404 17.6981 6.85697C17.7036 6.76169 17.7146 6.69818 17.7146 6.62937C17.7255 6.23769 17.9664 6.01009 18.3825 6.0048C19.0395 5.99951 19.6965 6.0048 20.348 6.0048C20.9831 6.0048 21.6182 6.0048 22.2478 6.0048C22.7406 6.0048 22.9541 6.21652 22.9541 6.68759C22.9541 8.22255 22.9541 9.75751 22.9541 11.2925C22.9541 11.4354 22.9924 11.5359 23.1074 11.6365C23.622 12.0811 24.1312 12.531 24.6349 12.9862C25.1824 13.4837 25.0729 14.2777 24.3995 14.6058C24.2352 14.6852 24.0217 14.7011 23.8301 14.7117C23.4085 14.7276 22.987 14.717 22.5271 14.717C22.5271 14.8229 22.5271 14.9075 22.5271 14.9975C22.5271 17.4852 22.5271 19.9676 22.5271 22.4553C22.5271 23.0005 22.3245 23.1963 21.7715 23.1963C20.2495 23.1963 18.7274 23.1963 17.2054 23.1963C16.636 23.1963 16.4389 23.0111 16.4389 22.4659C16.4389 20.9997 16.4389 19.5336 16.4389 18.0727C16.4389 17.9986 16.4389 17.9192 16.4389 17.8346C15.4753 17.8346 14.5336 17.8346 13.5536 17.8346C13.5536 17.9034 13.5536 17.9775 13.5536 18.0516C13.5536 19.5283 13.5536 21.0103 13.5536 22.4871C13.5536 22.9952 13.351 23.1963 12.8309 23.1963C11.2815 23.1963 9.72657 23.1963 8.17715 23.1963C7.67893 23.1963 7.4654 22.9846 7.4654 22.4976C7.4654 20.0047 7.4654 17.5117 7.4654 15.0187C7.45445 14.9234 7.45445 14.8334 7.45445 14.7117ZM12.3765 22.0372C12.3765 21.926 12.3765 21.8413 12.3765 21.7566C12.3765 20.3011 12.3765 18.8402 12.3765 17.3847C12.3765 16.8871 12.59 16.6807 13.1046 16.6807C14.3584 16.6807 15.6122 16.6807 16.8659 16.6807C17.4025 16.6807 17.6051 16.8818 17.6105 17.3952C17.6105 18.8614 17.6105 20.3275 17.6105 21.7884C17.6105 21.8678 17.6105 21.9525 17.6105 22.0319C18.8698 22.0319 20.0962 22.0319 21.3445 22.0319C21.3445 21.9366 21.3445 21.8519 21.3445 21.7672C21.3445 19.2584 21.3445 16.7495 21.3445 14.2459C21.3445 13.8066 21.5744 13.5843 22.0288 13.579C22.4066 13.5737 22.7844 13.579 23.1676 13.579C23.2826 13.579 23.3921 13.579 23.5509 13.579C23.4961 13.5155 23.4742 13.4943 23.4578 13.4785C23.0198 13.0868 22.5818 12.6951 22.1329 12.314C21.892 12.1076 21.7825 11.8747 21.7879 11.5571C21.7989 10.1756 21.7934 8.79419 21.7934 7.41273C21.7934 7.33333 21.7934 7.24865 21.7934 7.15867C20.8189 7.15867 19.8772 7.15867 18.9081 7.15867C18.9081 7.46566 18.9026 7.75677 18.9081 8.05317C18.9136 8.32841 18.8369 8.5613 18.5577 8.67774C18.273 8.80477 18.0376 8.69891 17.8241 8.50837C17.2601 8.00554 16.6853 7.50271 16.1159 6.99988C15.749 6.67701 15.3767 6.34884 14.999 6.02068C12.1356 8.53483 9.305 11.0278 6.42516 13.5631C6.55656 13.5684 6.62773 13.579 6.69891 13.579C7.09311 13.579 7.4873 13.579 7.8815 13.579C8.43995 13.579 8.64252 13.7801 8.64252 14.32C8.64252 16.8077 8.64252 19.2954 8.64252 21.7778C8.64252 21.8625 8.64252 21.9419 8.64252 22.0372C9.89082 22.0372 11.1227 22.0372 12.3765 22.0372Z" fill="#DBB961"/>
</g>
<defs>
<clipPath id="clip0_1_260">
<rect width="19.9836" height="18.3613" fill="white" transform="translate(4.99609 4.82983)"/>
</clipPath>
</defs>
</svg>
