<svg width="27" height="27" viewBox="0 0 27 27" fill="none" xmlns="http://www.w3.org/2000/svg">
<path d="M26 13.5C26 20.3894 20.4174 26 13.5 26C6.58257 26 1 20.3894 1 13.5C1 6.61056 6.58257 1 13.5 1C20.4174 1 26 6.61056 26 13.5Z" stroke="black" stroke-width="1.5"/>
<path d="M7 12.25L13 7L19 12.25V19.75H15.25V16.75C15.25 16.1533 15.0129 15.581 14.591 15.159C14.169 14.7371 13.5967 14.5 13 14.5C12.4032 14.5 11.831 14.7371 11.409 15.159C10.9871 15.581 10.75 16.1532 10.75 16.75V19.75H7.00001L7 12.25Z" stroke="black" stroke-width="1.5" stroke-linecap="round" stroke-linejoin="round"/>
</svg>
