<svg width="27" height="27" viewBox="0 0 27 27" fill="none" xmlns="http://www.w3.org/2000/svg">
<path d="M26 13.5C26 20.3894 20.4174 26 13.5 26C6.58258 26 1 20.3894 1 13.5C1 6.61056 6.58258 1 13.5 1C20.4174 1 26 6.61056 26 13.5Z" stroke="black" stroke-width="1.5"/>
<path fill-rule="evenodd" clip-rule="evenodd" d="M11.7652 8L13 8.6167L14.2348 8H19C19.5523 8 20 8.44772 20 9V17.5C20 18.0523 19.5523 18.5 19 18.5H14.5645L13 19.2826L11.4348 18.5H7C6.44772 18.5 6 18.0523 6 17.5V9C6 8.44772 6.44772 8 7 8H11.7652ZM11.4348 9.4H7.4V17.1H11.7652L12.3 17.3671V9.83261L11.4348 9.4ZM18.6 9.4H14.5645L13.7 9.83245V17.3671L14.2348 17.1H18.6V9.4ZM17.9 13.6V14.65H14.4V13.6H17.9ZM11.6 13.6V14.65H8.1V13.6H11.6ZM17.9 10.8V11.85H14.4V10.8H17.9ZM11.6 10.8V11.85H8.1V10.8H11.6Z" fill="black"/>
</svg>
