<svg width="31" height="29" viewBox="0 0 31 29" fill="none" xmlns="http://www.w3.org/2000/svg">
<path d="M30.3563 14.4895C30.3563 22.1998 23.886 28.4789 15.8686 28.4789C7.85117 28.4789 1.38086 22.1998 1.38086 14.4895C1.38086 6.77909 7.85117 0.5 15.8686 0.5C23.886 0.5 30.3563 6.77909 30.3563 14.4895Z" stroke="#DBB961"/>
<g clipPath="url(#clip0_1_266)">
<path d="M7.56373 8.87474C7.56373 8.70899 7.55688 8.5764 7.56373 8.4438C7.57745 8.25153 7.68032 8.11894 7.87234 8.07253C9.36048 7.70789 10.8692 7.61507 12.3848 7.88689C13.6603 8.11894 14.8124 8.60291 15.752 9.50457C15.7794 9.53109 15.8205 9.55761 15.8411 9.5775C16.1771 9.32556 16.4857 9.06037 16.8355 8.83496C17.6927 8.27805 18.6459 7.99297 19.6609 7.84049C21.0393 7.63496 22.3903 7.73441 23.7413 8.05264C24.0773 8.1322 24.1528 8.22501 24.1528 8.54988C24.1528 8.64932 24.1528 8.74877 24.1528 8.86811C24.2351 8.87474 24.3105 8.88137 24.3791 8.88137C24.7014 8.88137 25.0237 8.88137 25.346 8.88137C25.7163 8.88137 25.8535 9.02059 25.8604 9.36534C25.8604 9.39186 25.8604 9.42501 25.8604 9.45153C25.8604 13.3167 25.8604 17.1819 25.8604 21.0471C25.8604 21.1134 25.8672 21.173 25.8535 21.2393C25.8192 21.5178 25.5449 21.6703 25.2912 21.5443C24.4408 21.1266 23.5424 20.8548 22.6166 20.6559C21.005 20.3178 19.3797 20.2581 17.7407 20.4769C17.1784 20.5565 16.6229 20.6957 16.0537 20.762C15.7862 20.7951 15.5051 20.7355 15.2308 20.6758C13.5986 20.3311 11.9527 20.2648 10.2931 20.4703C8.95587 20.636 7.6666 20.9741 6.44591 21.5377C6.19217 21.657 5.93158 21.5244 5.88357 21.2526C5.86986 21.1797 5.87671 21.1001 5.87671 21.0206C5.87671 17.162 5.87671 13.3035 5.87671 9.4449C5.87671 8.98081 5.98644 8.87474 6.47334 8.87474C6.82995 8.87474 7.1797 8.87474 7.56373 8.87474ZM15.4502 19.6283C15.4571 19.5885 15.4639 19.5686 15.4639 19.5487C15.4639 16.5123 15.4639 13.4825 15.4571 10.446C15.4571 10.3797 15.4159 10.2935 15.3679 10.2471C14.8056 9.65043 14.1198 9.21949 13.338 8.94103C12.0967 8.49684 10.8143 8.40402 9.50449 8.54988C9.1136 8.59628 8.72956 8.66258 8.34552 8.72225C8.34552 12.0239 8.34552 15.299 8.34552 18.5808C10.8143 18.3554 13.2214 18.3753 15.4502 19.6283ZM23.3847 18.5874C23.3847 18.4813 23.3847 18.3951 23.3847 18.3156C23.3847 16.9233 23.3847 15.5377 23.3847 14.1454C23.3847 12.4084 23.3847 10.6714 23.3847 8.93441C23.3847 8.8217 23.3916 8.73551 23.2338 8.70236C21.9651 8.46369 20.6896 8.39076 19.414 8.64932C18.2482 8.888 17.2058 9.35208 16.376 10.2007C16.3074 10.267 16.2594 10.3797 16.2594 10.4725C16.2526 13.4626 16.2526 16.4526 16.2526 19.4427C16.2526 19.4957 16.2663 19.5421 16.2731 19.6084C18.5157 18.3819 20.9159 18.3487 23.3847 18.5874ZM6.6585 20.6161C8.90101 19.7543 11.1915 19.4228 13.5643 19.6614C12.7688 19.4029 11.9527 19.2637 11.1161 19.2239C10.1011 19.1841 9.09303 19.2438 8.09179 19.383C7.75575 19.4294 7.59117 19.2835 7.57745 18.9653C7.57745 18.8924 7.57745 18.8261 7.57745 18.7532C7.57745 15.8095 7.57745 12.8725 7.57745 9.92888C7.57745 9.83606 7.57745 9.74987 7.57745 9.65705C7.25513 9.65705 6.96025 9.65705 6.66536 9.65705C6.6585 13.3035 6.6585 16.9366 6.6585 20.6161ZM18.1522 19.6084C18.1522 19.6349 18.159 19.6548 18.159 19.6813C19.3317 19.5288 20.4976 19.5686 21.6634 19.7277C22.8224 19.8869 23.9539 20.1786 25.0717 20.6228C25.0717 16.9432 25.0717 13.2968 25.0717 9.65043C24.77 9.65043 24.4819 9.65043 24.1733 9.65043C24.1733 9.7565 24.1733 9.84269 24.1733 9.93551C24.1733 12.899 24.1733 15.8626 24.1733 18.8261C24.1733 19.3034 24.0225 19.4294 23.5287 19.3697C22.2737 19.2106 21.0188 19.1443 19.7569 19.3101C19.222 19.3764 18.6871 19.5023 18.1522 19.6084Z" fill="#DBB961"/>
</g>
<defs>
<clipPath id="clip0_1_266">
<rect width="19.9836" height="13.8563" fill="white" transform="translate(5.87695 7.72778)"/>
</clipPath>
</defs>
</svg>
