<svg width="50" height="22" viewBox="0 0 50 22" fill="none" xmlns="http://www.w3.org/2000/svg">
<path d="M23.7528 21.9596C21.8084 21.6362 20.6633 21.2458 19.3254 20.4539L18.7812 20.1305L18.424 20.242C16.6383 20.7885 14.9376 19.0877 15.5385 17.3478L15.6519 17.0076L15.4308 16.6284C14.8299 15.6191 14.2914 14.2807 14.11 13.3661L14.0363 12.9869L7.85714 12.9758L1.67234 12.9591L1.29252 12.7806C0.787982 12.5464 0.368481 12.156 0.164399 11.7322C0.0226757 11.4422 0 11.3307 0 10.8957C0 10.4608 0.0226757 10.3492 0.164399 10.0593C0.368481 9.63544 0.787982 9.24509 1.29252 9.01087L1.67234 8.83242L7.87982 8.80454L14.0816 8.77666L14.1723 8.3863C14.3991 7.41598 14.915 6.17799 15.4649 5.29132L15.6916 4.92327L15.5556 4.53849C15.1814 3.45106 15.5839 2.3971 16.6156 1.76695C17.1429 1.44351 18.1916 1.4212 18.7528 1.71676C18.8605 1.77252 18.9456 1.73906 19.3991 1.48254C20.5045 0.863547 21.627 0.43973 22.8742 0.177633C23.4637 0.0549493 23.7302 0.0326431 24.8866 0.010337C26.1905 -0.0119692 26.2358 -0.0119692 27.0692 0.155327C27.5397 0.244552 28.237 0.423001 28.6281 0.551261C29.3254 0.779899 30.4762 1.30967 30.9297 1.6108C31.1111 1.72791 31.1848 1.75022 31.2642 1.7056C31.3209 1.67772 31.4966 1.61638 31.6553 1.57734C33.4467 1.10892 35.017 2.72611 34.4671 4.47157L34.3537 4.83962L34.6088 5.23555C35.1361 6.04415 35.7256 7.42156 35.941 8.34169L36.0091 8.63724L42.1372 8.6484L48.271 8.66513L48.6508 8.84358C49.178 9.08337 49.5635 9.45699 49.8073 9.94773C49.9887 10.3269 50 10.3827 50 10.918C50 11.4255 49.983 11.5203 49.8356 11.8438C49.5408 12.4795 48.8946 12.9869 48.1803 13.1487C48.0215 13.1877 45.788 13.21 41.9898 13.21C37.2902 13.21 36.0488 13.2267 36.0317 13.2825C36.0204 13.316 35.9297 13.6394 35.8333 13.9907C35.5669 14.9443 35.034 16.1154 34.4671 16.9853C34.3991 17.0913 34.3991 17.147 34.4841 17.4091C34.6145 17.8162 34.6088 18.3795 34.4671 18.7754C34.0476 19.9576 32.8458 20.5766 31.6156 20.2588L31.2642 20.1639L30.941 20.3647C30.1984 20.8331 29.1383 21.3016 28.1746 21.5804C27.1995 21.8648 26.3719 21.9763 25.1984 21.9986C24.5748 22.0042 23.9229 21.9931 23.7528 21.9596ZM24.5578 19.0988L24.5408 17.1861L22.7268 16.4444L20.907 15.7083L20.7029 15.8923C20.5896 15.9983 20.3118 16.2548 20.0907 16.4667L19.6825 16.8459L19.8469 17.1917C19.9887 17.4928 20.0113 17.5932 20.0113 18.0449C20.0113 18.5914 19.8923 19.0263 19.6655 19.3107L19.5522 19.4502L19.7789 19.5951C20.6349 20.1249 22.0351 20.6491 23.1179 20.8443C23.9512 21.0004 23.9683 21.0004 24.2914 21.0116L24.5748 21.0172L24.5578 19.0988ZM27.0011 20.8499C28.0782 20.6435 29.2857 20.1974 30.2608 19.6398L30.4989 19.5003L30.3628 19.3386C30.1134 19.0486 29.9887 18.6137 29.9887 18.0449C29.9887 17.5932 30.0113 17.4928 30.1531 17.1917L30.3175 16.8515L29.7619 16.305L29.2007 15.7585L28.9002 15.87C28.7358 15.9314 28.2313 16.1377 27.7778 16.3217C27.3243 16.5057 26.6497 16.779 26.2755 16.9351L25.5952 17.214L25.5782 19.1211L25.5669 21.0339L25.9807 21.0004C26.2075 20.9781 26.6667 20.9112 27.0011 20.8499ZM18.1859 19.2773C18.4184 19.2104 18.7188 18.9594 18.8889 18.6862C19.0646 18.4073 19.0703 17.7939 18.8946 17.4761C18.4807 16.7065 17.4717 16.5392 16.8481 17.1303C16.0544 17.8776 16.4342 19.1379 17.517 19.3442C17.7268 19.3888 17.8741 19.3721 18.1859 19.2773ZM32.8855 19.1992C33.8152 18.7419 33.7925 17.3701 32.8458 16.9128C32.0975 16.5504 31.2245 16.9463 31.0034 17.7437C30.8163 18.4241 31.2472 19.1379 31.9558 19.3163C32.2846 19.4 32.5397 19.3721 32.8855 19.1992ZM25.6463 16.1377C25.9127 16.0317 26.3435 15.8589 26.6043 15.7529C26.8594 15.647 27.4773 15.396 27.9762 15.1953C28.4751 14.9889 28.9116 14.7937 28.9456 14.7547C28.9796 14.7212 29.0363 14.6153 29.0703 14.5205C29.1043 14.4313 29.246 14.0799 29.3934 13.7398C29.6485 13.1487 29.9603 12.407 30.3628 11.4478L30.5499 10.9905L29.8923 9.44026C29.5351 8.58148 29.178 7.73384 29.1043 7.55539C29.0306 7.37695 28.9626 7.21523 28.9512 7.20407C28.9399 7.19292 28.5601 7.03678 28.1122 6.85833C26.6156 6.25048 25.6519 5.86013 25.3855 5.74302L25.1134 5.63149L23.2596 6.38432C22.2449 6.79699 21.3662 7.15946 21.3095 7.19292C21.2528 7.2208 21.1905 7.29887 21.1735 7.36579C21.1395 7.47732 20.6633 8.60936 20.2721 9.52949C20.1984 9.69679 20.0283 10.0927 19.898 10.405L19.6542 10.9794L19.8299 11.4088C19.9263 11.6486 20.1304 12.1449 20.2891 12.5129C20.4422 12.881 20.7256 13.5446 20.907 13.9907L21.2472 14.7937L21.9161 15.067C22.2903 15.2176 22.8005 15.4239 23.0612 15.5298C23.3163 15.6358 23.7472 15.8087 24.0249 15.9202C24.8583 16.2659 25.0283 16.3273 25.0964 16.3329C25.1361 16.3329 25.3798 16.2436 25.6463 16.1377ZM34.1553 15.5522C34.5068 14.8551 34.7789 14.1469 34.9433 13.4888C35.102 12.8475 35.2608 11.9051 35.2608 11.5817V11.3697H33.373H31.4796L31.2358 11.9441C30.9354 12.6524 30.788 12.9981 30.3005 14.1469L29.915 15.0558L30.4649 15.6023L31.0204 16.1488L31.3095 16.0039C31.576 15.87 31.6667 15.8589 32.2619 15.8589C32.9082 15.8589 32.9252 15.8644 33.3107 16.0596L33.7018 16.2604L33.8095 16.1433C33.8662 16.0763 34.0193 15.8142 34.1553 15.5522ZM16.7517 16.0262C17.0692 15.87 17.1372 15.8589 17.7438 15.8589C18.3333 15.8589 18.424 15.87 18.6905 16.0039L18.9853 16.1544L19.6202 15.5577L20.2551 14.9666L20.085 14.5763C19.9887 14.3588 19.6485 13.5502 19.3254 12.7806L18.7358 11.3697H16.7971C15.085 11.3697 14.8526 11.3809 14.8526 11.4534C14.8526 11.9832 15.0964 13.316 15.3118 13.9907C15.6066 14.9053 16.2642 16.2659 16.3776 16.2046C16.3946 16.199 16.5646 16.1154 16.7517 16.0262ZM48.2086 12.1282C48.3107 12.0891 48.4921 11.9664 48.6111 11.8661C49.3084 11.2638 49.1383 10.1875 48.271 9.73024L48.0442 9.61314L42.1032 9.59641L36.1621 9.57968L36.2075 9.73582C36.2302 9.82505 36.2528 10.4106 36.2528 11.0519V12.2062H42.1372C47.0011 12.2062 48.0499 12.1951 48.2086 12.1282ZM13.8605 11.3865C13.8435 11.0519 13.8492 10.5667 13.8719 10.2991L13.9229 9.80832H7.89683H1.86508L1.58163 9.94773C0.770975 10.3548 0.753968 11.3642 1.54762 11.8159L1.8424 11.9832H7.86848H13.8946L13.8605 11.3865ZM19.0079 9.96446C19.1156 9.70794 19.3254 9.21163 19.4728 8.8603C19.6202 8.50898 19.7846 8.11862 19.8413 7.99594C19.9943 7.65577 20.2381 7.03678 20.2381 6.98101C20.2381 6.9587 19.9546 6.65757 19.6032 6.31183L18.9739 5.68725L18.6848 5.83782C18.4184 5.97723 18.339 5.98839 17.7438 5.98839C17.1259 5.98839 17.0692 5.97723 16.7404 5.82109L16.4002 5.65379L16.2982 5.82109C15.6122 6.96986 15.0624 8.53687 14.9433 9.6689C14.9206 9.85293 14.8923 10.0983 14.8753 10.2154L14.8413 10.4217H16.8254H18.8095L19.0079 9.96446ZM35.2381 10.1039C35.051 8.53687 34.6315 7.23753 33.9116 5.99954C33.6791 5.60361 33.6508 5.57015 33.5658 5.64822C33.5147 5.69283 33.3447 5.79321 33.1916 5.86013C32.9478 5.97166 32.8175 5.98839 32.2562 5.98839C31.6553 5.98839 31.5816 5.97723 31.3095 5.83782L31.0147 5.68168L30.4535 6.27279L29.8923 6.8639L30.1417 7.46059C30.4195 8.11305 30.805 9.03318 31.0998 9.7414C31.2075 9.99792 31.3209 10.2544 31.3549 10.3158C31.4059 10.4162 31.5023 10.4217 33.3447 10.4217H35.2721L35.2381 10.1039ZM21.8594 5.89916C22.3243 5.70956 22.9195 5.46977 23.1859 5.36381C23.4524 5.25228 23.8095 5.10729 23.9796 5.04038C24.1497 4.97346 24.3537 4.88423 24.4331 4.85077L24.5748 4.78385L24.5578 2.89341L24.5408 0.997384H24.161C23.5601 0.997384 22.3186 1.27621 21.3209 1.63869C21.0714 1.72791 20.3175 2.09039 19.8639 2.34133L19.6372 2.46401L19.8073 2.7763C19.9773 3.07743 19.983 3.11647 19.983 3.75777C19.983 4.37677 19.9717 4.44926 19.8299 4.70578L19.6769 4.98461L20.3118 5.61476C20.6576 5.95493 20.958 6.23933 20.9751 6.23933C20.9977 6.23933 21.3946 6.08876 21.8594 5.89916ZM29.7562 5.59245L30.3231 5.00134L30.1701 4.71136C30.0283 4.44926 30.017 4.37677 30.017 3.75777C30.017 3.10532 30.0227 3.07743 30.2041 2.75957C30.3401 2.50305 30.3685 2.41383 30.3175 2.38037C30.2778 2.35248 29.9206 2.17403 29.5295 1.97886C28.4467 1.44908 27.1655 1.08661 26.0941 1.00296L25.5669 0.969502V2.86553V4.76713L26.0941 4.97903C26.7574 5.25228 27.2336 5.44746 27.8061 5.68168C28.0556 5.78205 28.424 5.9382 28.6281 6.02185C28.8322 6.11107 29.0363 6.18357 29.093 6.18357C29.144 6.18357 29.4388 5.91589 29.7562 5.59245ZM18.424 4.85635C18.5714 4.76713 18.7472 4.58868 18.8492 4.43253C18.9966 4.19274 19.0193 4.10909 19.0136 3.76335C19.0136 3.3005 18.9286 3.11089 18.5998 2.82091C17.9252 2.22422 16.8707 2.44171 16.5193 3.25588C16.4683 3.37857 16.4229 3.6072 16.4286 3.75777C16.4286 4.20947 16.627 4.56079 17.0805 4.89539C17.3696 5.11287 18.0329 5.09056 18.424 4.85635ZM32.9025 4.90096C33.3277 4.64444 33.5714 4.2262 33.5714 3.75777C33.5771 2.89898 32.7664 2.29114 31.9331 2.53093C31.5986 2.62573 31.2302 2.91571 31.0771 3.19454C31.0204 3.30607 30.9864 3.5124 30.9864 3.75777C30.9807 4.08679 31.0034 4.18716 31.1395 4.4158C31.3095 4.70021 31.627 4.94 31.9274 5.01807C32.1995 5.08499 32.7041 5.02365 32.9025 4.90096Z" fill="#676767"/>
</svg>
