<svg width="20" height="20" viewBox="0 0 20 20" fill="none" xmlns="http://www.w3.org/2000/svg">
<path fill-rule="evenodd" clip-rule="evenodd" d="M1.53846 8.97437C1.53846 4.86764 4.86764 1.53846 8.97437 1.53846C13.0811 1.53846 16.4103 4.86764 16.4103 8.97437C16.4103 10.9852 15.6121 12.8097 14.3152 14.1481C14.2838 14.1712 14.2538 14.1969 14.2254 14.2254C14.1969 14.2538 14.1712 14.2838 14.1481 14.3152C12.8098 15.612 10.9852 16.4103 8.97437 16.4103C4.86764 16.4103 1.53846 13.0811 1.53846 8.97437V8.97437ZM14.753 15.8409C13.1918 17.1562 11.1756 17.9487 8.97437 17.9487C4.01796 17.9487 0 13.9308 0 8.97437C0 4.01796 4.01796 0 8.97437 0C13.9308 0 17.9487 4.01796 17.9487 8.97437C17.9487 11.1756 17.1562 13.1918 15.8409 14.753L19.7747 18.6869C20.0751 18.9873 20.0751 19.4743 19.7747 19.7747C19.4743 20.0751 18.9873 20.0751 18.6869 19.7747L14.753 15.8409Z" fill="#DBB961"/>
</svg>
