<svg width="20" height="20" viewBox="0 0 20 20" fill="none" xmlns="http://www.w3.org/2000/svg">
<path d="M18.2879 2.30386C17.9218 2.00026 17.4186 1.92214 16.9777 2.10041L2.04685 8.12824C1.39007 8.39858 1.0768 9.15018 1.34714 9.80691C1.48696 10.1466 1.76528 10.4102 2.11196 10.5314L5.33299 11.6512L7.07859 17.4227C7.0821 17.4344 7.09289 17.4416 7.09741 17.4529C7.11547 17.4989 7.14187 17.5413 7.17518 17.5778C7.18759 17.5925 7.20112 17.6063 7.21557 17.619C7.25905 17.6551 7.30956 17.6818 7.36388 17.6974C7.37217 17.6998 7.37772 17.7072 7.38616 17.7091L7.39104 17.7089L7.39348 17.7099C7.42131 17.7162 7.44969 17.7192 7.47812 17.7189C7.5153 17.7176 7.55217 17.7112 7.58757 17.6998C7.59444 17.6979 7.60136 17.6985 7.60807 17.6962C7.66855 17.6749 7.72317 17.6399 7.76768 17.5938C7.77287 17.5886 7.78075 17.5877 7.78574 17.5822L10.2971 14.8112L13.9609 17.6481C14.1835 17.8222 14.4579 17.9167 14.7405 17.9167C15.3517 17.9166 15.8792 17.4884 16.0051 16.8905L18.7241 3.54247C18.8183 3.08074 18.6506 2.60466 18.2879 2.30386ZM7.99005 12.7458L7.40071 15.6097L6.17166 11.5449L12.2674 8.3707L8.10317 12.535C8.04559 12.5926 8.00628 12.6659 7.99005 12.7458ZM15.1889 16.7228C15.157 16.8762 15.0475 17.002 14.9 17.0548C14.7559 17.1103 14.5931 17.0856 14.472 16.9897L10.5023 13.916C10.3304 13.7829 10.0851 13.8046 9.93911 13.9656L8.19274 15.8925L8.78107 13.0363L14.7715 7.04507C14.9343 6.88257 14.9345 6.61889 14.772 6.45613C14.6435 6.3273 14.4462 6.29688 14.2848 6.38101L5.64869 10.8782L2.38458 9.74364C2.20666 9.6851 2.08566 9.51995 2.08348 9.33267C2.07488 9.14407 2.18652 8.97068 2.3618 8.90054L17.2902 2.87352C17.4461 2.80735 17.6261 2.83507 17.7549 2.94514C17.883 3.04859 17.9419 3.21547 17.907 3.37645L15.1889 16.7228Z" fill="black"/>
</svg>
