<svg width="25" height="26" viewBox="0 0 25 26" fill="none" xmlns="http://www.w3.org/2000/svg">
<path d="M12.4733 25.9837C5.56154 25.9659 -0.0294965 20.3515 0.000117098 13.4519C0.0297307 6.54052 5.62669 0.973486 12.5267 0.991253C19.4444 1.00902 25.0295 6.62936 24.9999 13.5289C24.9703 20.4344 19.3674 26.0015 12.4733 25.9837ZM7.53973 8.77918C7.23175 10.0762 7.04814 11.3969 7.03038 12.7353C8.62951 12.7353 10.1931 12.7353 11.7567 12.7353C11.7567 11.4976 11.7567 10.2835 11.7567 9.0753C10.353 8.97462 8.9671 8.87986 7.53973 8.77918ZM13.2492 9.0753C13.2492 10.2953 13.2492 11.5094 13.2492 12.7353C14.8306 12.7353 16.3942 12.7353 17.9755 12.7353C17.9459 11.391 17.7742 10.088 17.4662 8.80879C16.0507 8.89763 14.6648 8.98646 13.2492 9.0753ZM6.01167 8.54821C5.03442 8.31724 4.03941 8.08034 3.0207 7.83752C2.12637 9.33589 1.61109 10.9645 1.49856 12.7353C2.86671 12.7353 4.19932 12.7353 5.48455 12.7353C5.66223 11.3199 5.83991 9.93404 6.01167 8.54821ZM17.9696 14.2396C16.3764 14.2396 14.8128 14.2396 13.2551 14.2396C13.2551 15.4596 13.2551 16.6559 13.2551 17.8286C14.6707 17.9293 16.0507 18.024 17.4543 18.1188C17.7564 16.8514 17.94 15.5603 17.9696 14.2396ZM11.7567 14.2337C10.1694 14.2337 8.61766 14.2337 7.0363 14.2337C7.05999 15.5544 7.23767 16.8336 7.53973 18.0951C8.95526 18.0062 10.3471 17.9174 11.7567 17.8227C11.7567 16.6382 11.7567 15.4478 11.7567 14.2337ZM22.0208 19.0664C22.8914 17.5798 23.3889 15.9749 23.5014 14.2337C22.1451 14.2337 20.8066 14.2337 19.5095 14.2337C19.3318 15.6195 19.1542 16.9817 18.9824 18.3497C19.9597 18.5807 20.9724 18.8235 22.0208 19.0664ZM23.4718 12.7413C23.4837 12.7116 23.4896 12.6998 23.4896 12.6939C23.3948 11.0297 22.9092 9.48394 22.0859 8.04481C22.0504 7.97966 21.8905 7.93228 21.8075 7.95005C21.5173 8.00335 21.239 8.10403 20.9487 8.16918C20.2854 8.31724 19.6221 8.45345 18.9943 8.58967C19.166 9.98142 19.3378 11.3495 19.5155 12.7472C20.8125 12.7413 22.1451 12.7413 23.4718 12.7413ZM1.52818 14.2337C1.51633 14.2692 1.49856 14.287 1.50449 14.3048C1.61702 15.9216 2.07307 17.4436 2.86079 18.8591C2.9437 19.0071 3.03255 19.0071 3.17469 18.9716C3.84396 18.8058 4.51322 18.6399 5.18841 18.486C5.4727 18.4208 5.76292 18.3734 6.01167 18.3261C5.83399 16.9461 5.66815 15.6018 5.49047 14.2278C4.1934 14.2337 2.86079 14.2337 1.52818 14.2337ZM17.0931 7.36966C16.791 6.6945 16.5541 6.10227 16.2639 5.53372C15.8315 4.67497 15.2807 3.89322 14.5285 3.27137C14.1495 2.95748 13.7408 2.6969 13.2433 2.57845C13.2433 4.26041 13.2433 5.90091 13.2433 7.59471C14.5167 7.52364 15.7605 7.44665 17.0931 7.36966ZM7.99578 7.34004C9.25139 7.42296 10.4952 7.50587 11.7508 7.58878C11.7508 5.88906 11.7508 4.24264 11.7508 2.60214C10.0569 2.94564 8.51698 5.47449 7.99578 7.34004ZM11.7508 24.3195C11.7508 22.6435 11.7508 21.003 11.7508 19.3092C10.4833 19.3862 9.23955 19.4572 7.99578 19.5283C7.99578 19.6112 7.98985 19.6408 7.99578 19.6645C8.41629 20.8371 8.94933 21.9565 9.76075 22.9218C10.2938 23.5496 10.9098 24.0648 11.7508 24.3195ZM13.2492 24.361C15.411 23.4489 16.252 21.5656 17.0575 19.5579C15.7486 19.475 14.5108 19.3921 13.2492 19.3151C13.2492 21.0148 13.2492 22.6494 13.2492 24.361ZM8.49921 23.7391C7.57527 22.5369 6.95338 21.1866 6.46179 19.7297C5.57931 19.9192 4.72052 20.0968 3.81434 20.2923C5.10549 21.8913 6.63355 23.0403 8.49921 23.7391ZM18.5204 19.7711C18.0348 21.228 17.407 22.5546 16.5008 23.7391C18.3428 23.0403 19.859 21.915 21.1383 20.3456C20.2321 20.1501 19.3852 19.9606 18.5204 19.7711ZM21.1324 6.62936C19.8827 5.07769 18.3901 3.97021 16.6015 3.24176C16.9805 3.88137 17.3774 4.49138 17.7031 5.13692C18.0289 5.78246 18.2835 6.46353 18.5797 7.16237C19.4088 6.99062 20.2439 6.81295 21.1324 6.62936ZM8.41037 3.27137C6.63355 3.95837 5.1588 5.04808 3.91503 6.56421C4.80344 6.75965 5.63262 6.94324 6.47956 7.12684C6.94153 5.72323 7.55157 4.43808 8.41037 3.27137Z" fill="#DBB961"/>
</svg>
