<?xml version="1.0" encoding="utf-8"?>
<svg viewBox="179.1318 161.246 30 30" xmlns="http://www.w3.org/2000/svg">
  <defs>
    <clipPath id="clip0_1758_911">
      <rect width="30" height="30" fill="white"/>
    </clipPath>
  </defs>
  <g clip-path="url(#clip0_1758_911)" transform="matrix(1, 0, 0, 1, 179.13181075846575, 161.24596122640244)">
    <path d="M12.4289 14.5501C12.7361 14.406 12.9181 14.0047 12.9181 13.5092C12.9181 12.6751 12.3536 12.3867 11.5949 12.3867C10.5352 12.3867 10.2216 13.0327 10.2216 13.4779C10.2216 13.7413 10.2779 13.8292 10.6416 13.8292C10.9428 13.8292 11.0305 13.7035 11.0305 13.5156C11.0305 13.2647 11.1811 13.0954 11.5887 13.0954C11.9272 13.0954 12.1405 13.2334 12.1405 13.6472C12.1405 14.1864 11.8771 14.2617 11.5636 14.2617C11.3816 14.2617 11.3189 14.4247 11.3189 14.5815C11.3189 14.7445 11.3816 14.9013 11.5636 14.9013C11.9647 14.9013 12.2534 15.0331 12.2534 15.497V15.6163C12.2534 16.0928 12.0526 16.2935 11.5823 16.2935C11.1808 16.2935 10.93 16.1177 10.93 15.8358C10.93 15.635 10.8423 15.5471 10.51 15.5471C10.2278 15.5471 10.1211 15.6163 10.1211 15.8671C10.1211 16.375 10.5349 17.0083 11.5636 17.0083C12.3912 17.0083 13.0684 16.6259 13.0684 15.6163V15.497C13.0684 14.9766 12.7988 14.6943 12.4289 14.5501ZM15.0439 13.1016C15.3888 13.1016 15.6836 13.2709 15.6836 13.5657C15.6836 13.8101 15.8844 13.8729 16.11 13.8729C16.3671 13.8729 16.4925 13.7914 16.4925 13.5343C16.4925 13.0075 16.0661 12.3867 15.0627 12.3867C14.2099 12.3867 13.5513 12.7756 13.5513 13.8227V15.5726C13.5513 16.6196 14.1973 17.0085 15.0252 17.0085C15.853 17.0085 16.4925 16.6197 16.4925 15.5726V15.4847C16.4925 14.4939 15.9031 14.1867 15.1945 14.1867C14.8684 14.1867 14.5674 14.2617 14.3605 14.5064V13.8227C14.3605 13.3274 14.6175 13.1016 15.0439 13.1016ZM15.0189 14.8262C15.4328 14.8262 15.6775 15.0205 15.6775 15.541V15.6227C15.6775 16.118 15.4328 16.3439 15.0252 16.3439C14.6113 16.3439 14.3605 16.118 14.3605 15.6227V15.4847C14.3605 15.0079 14.6239 14.8262 15.0189 14.8262ZM19.9355 13.8227C19.9355 12.7757 19.2897 12.3867 18.4618 12.3867C17.6339 12.3867 16.9944 12.7756 16.9944 13.8227V15.5723C16.9944 16.6197 17.6339 17.0085 18.4618 17.0085C19.2897 17.0085 19.9355 16.6197 19.9355 15.5723V13.8227ZM19.1203 15.5723C19.1203 16.0679 18.8695 16.2935 18.4618 16.2935C18.048 16.2935 17.8095 16.0679 17.8095 15.5723V13.8227C17.8095 13.3274 18.0479 13.1016 18.4618 13.1016C18.8694 13.1016 19.1203 13.3274 19.1203 13.8227V15.5723Z" style="fill: rgb(255, 255, 255);"/>
    <path d="M30 14.9746C29.9938 11.3656 28.6885 7.88133 26.3225 5.16082C26.2456 5.0743 26.1377 5.02162 26.0222 5.01422C25.9066 5.00682 25.7929 5.0453 25.7055 5.12129C25.6182 5.19729 25.5644 5.30467 25.5558 5.42011C25.5471 5.53555 25.5844 5.64973 25.6595 5.73785C27.1756 7.48158 28.2401 9.57108 28.7595 11.8226C27.9984 10.9023 26.8996 10.0623 25.4961 9.34477C24.4437 8.80687 23.2631 8.35922 21.9901 8.01C21.6408 6.73693 21.1933 5.55633 20.6552 4.50393C19.9377 3.10043 19.0979 2.00156 18.1775 1.24078C20.4189 1.75772 22.4999 2.81495 24.2391 4.32035C24.3271 4.39663 24.4419 4.43481 24.5581 4.42649C24.6744 4.41817 24.7825 4.36404 24.8589 4.276C24.9352 4.18785 24.9733 4.07301 24.965 3.95673C24.9566 3.84045 24.9024 3.73226 24.8142 3.65596C22.0914 1.29844 18.606 0 15 0C10.9934 0 7.22648 1.56029 4.39336 4.39336C1.56035 7.22648 0 10.9934 0 15V15.0254C0.00615234 18.6328 1.31057 22.1162 3.67494 24.836C3.71612 24.8835 3.76706 24.9216 3.82429 24.9476C3.88152 24.9737 3.9437 24.9871 4.00658 24.987C4.09086 24.987 4.17335 24.9627 4.24422 24.9171C4.31509 24.8715 4.37135 24.8065 4.40628 24.7298C4.44121 24.6531 4.45335 24.568 4.44124 24.4846C4.42913 24.4012 4.39329 24.323 4.33799 24.2594C2.82324 22.5162 1.75968 20.4277 1.24072 18.1774C2.00156 19.0977 3.10049 19.9377 4.50416 20.6552C5.55633 21.1931 6.73693 21.6408 8.00994 21.99C8.35922 23.2631 8.80693 24.4437 9.34477 25.4961C10.0623 26.8996 10.9023 27.9984 11.8227 28.7592C9.5723 28.2403 7.48378 27.1767 5.74061 25.6618C5.5575 25.5027 5.27982 25.5219 5.1208 25.7053C5.08293 25.7488 5.054 25.7993 5.03568 25.8541C5.01736 25.9088 5.00999 25.9666 5.01401 26.0241C5.01802 26.0817 5.03334 26.1379 5.05908 26.1895C5.08483 26.2412 5.12049 26.2872 5.16404 26.3251C7.88408 28.6894 11.3672 29.9938 14.9746 30H15C19.0066 30 22.7735 28.4397 25.6066 25.6066C28.4396 22.7735 30 19.0066 30 15V14.9746ZM5.0148 5.0148C6.92027 3.10957 9.27404 1.8157 11.8385 1.23205C10.8824 2.01762 10.0145 3.16248 9.28576 4.62041L8.79961 3.16564C8.72244 2.93537 8.47365 2.81115 8.24338 2.88803C8.01311 2.9649 7.88912 3.21398 7.966 3.4442L8.80576 5.95711C8.84276 6.06763 8.92212 6.15895 9.0264 6.21101C9.13068 6.26306 9.25136 6.27159 9.36193 6.23473L11.8748 5.39473C11.9854 5.35778 12.0768 5.27843 12.1288 5.17413C12.1809 5.06983 12.1894 4.94912 12.1525 4.83855C12.1155 4.72803 12.0361 4.63671 11.9318 4.58469C11.8275 4.53267 11.7068 4.52421 11.5963 4.56117L10.0371 5.0823C11.3586 2.3973 13.1362 0.878906 15 0.878906C16.8151 0.878906 18.5456 2.30848 19.8727 4.9043C20.316 5.77148 20.6953 6.73184 21.0054 7.76344C19.137 7.33934 17.1009 7.11615 15 7.11615C11.0424 7.11615 7.31508 7.90764 4.50416 9.34477C3.09633 10.0646 1.99494 10.9073 1.23393 11.8309C1.81822 9.26947 3.11145 6.9184 5.0148 5.0148ZM7.76344 21.0054C6.73213 20.6953 5.77148 20.316 4.9043 19.8727C2.30859 18.5456 0.878906 16.8151 0.878906 15C0.878906 13.1849 2.30848 11.4544 4.9043 10.1273C5.77195 9.68379 6.73301 9.30428 7.76525 8.99391C7.33453 10.885 7.11621 12.9014 7.11621 15C7.11621 17.1009 7.33934 19.137 7.76344 21.0054ZM15 29.1211C13.1849 29.1211 11.4544 27.6915 10.1273 25.0957C9.68396 24.2285 9.30469 23.2682 8.99461 22.2366C10.863 22.6607 12.8991 22.8838 15 22.8838C16.038 22.8838 17.0684 22.8289 18.0752 22.72L17.1151 24.0628C17.0492 24.1577 17.0233 24.2747 17.0429 24.3885C17.0626 24.5023 17.1264 24.6038 17.2203 24.671C17.3143 24.7382 17.4309 24.7658 17.545 24.7476C17.6591 24.7295 17.7614 24.6671 17.8299 24.5741L19.3709 22.4187C19.4218 22.3477 19.4504 22.2631 19.4529 22.1757C19.4539 22.1485 19.4524 22.1213 19.4486 22.0944C19.4385 22.0254 19.4122 21.9597 19.3717 21.9028C19.3312 21.846 19.2778 21.7996 19.2158 21.7676L17.1137 20.2645C17.0189 20.1968 16.9011 20.1694 16.7862 20.1885C16.6712 20.2076 16.5686 20.2716 16.5008 20.3664C16.4672 20.4133 16.4432 20.4664 16.4302 20.5226C16.4171 20.5789 16.4153 20.6371 16.4247 20.6941C16.4342 20.751 16.4548 20.8055 16.4853 20.8545C16.5158 20.9035 16.5557 20.946 16.6027 20.9796L17.8361 21.8614C16.9066 21.9569 15.9567 22.0049 14.9998 22.0049C12.7879 22.0049 10.6552 21.7511 8.72906 21.2707C8.24865 19.3448 7.99488 17.2119 7.99488 15C7.99488 12.7952 8.24297 10.6867 8.73205 8.72865C10.6574 8.24865 12.7893 7.99506 15 7.99506C17.2119 7.99506 19.3448 8.24889 21.2707 8.7293C21.7511 10.6552 22.0049 12.7881 22.0049 15C22.0049 17.2895 21.733 19.4943 21.2194 21.4726C21.2077 21.5028 21.1994 21.5343 21.1947 21.5664C20.8541 22.8537 20.4107 24.0434 19.8727 25.0958C18.5456 27.6914 16.8151 29.1211 15 29.1211ZM24.9852 24.9852C23.0816 26.8886 20.7305 28.1818 18.1691 28.7663C19.0927 28.0051 19.9354 26.9039 20.6552 25.4961C21.1935 24.4432 21.6412 23.2619 21.9905 21.988C25.0813 21.1407 27.4361 19.7831 28.7682 18.1602C28.1848 20.725 26.8908 23.0796 24.9852 24.9852ZM27.0823 18.5964C25.8749 19.5854 24.2104 20.4105 22.237 21.0026C22.6609 19.135 22.8838 17.0997 22.8838 15C22.8838 12.8991 22.6607 10.863 22.2366 8.99438C23.2679 9.30469 24.2285 9.68379 25.0957 10.1273C27.6914 11.4544 29.1211 13.1849 29.1211 15C29.1211 16.2602 28.4162 17.5039 27.0822 18.5964H27.0823Z" style="fill: rgb(255, 255, 255);"/>
  </g>
</svg>