<?xml version="1.0" encoding="utf-8"?>
<svg viewBox="158.269 216.7915 29.121 29.0375" xmlns="http://www.w3.org/2000/svg">
  <mask id="mask0_1758_924" style="mask-type:luminance" maskUnits="userSpaceOnUse" x="0" y="0" width="30" height="30">
    <path d="M29.5 29.5V0.5H0.5V29.5H29.5Z" fill="white" stroke="white"/>
  </mask>
  <g mask="url(#mask0_1758_924)" transform="matrix(1, 0, 0, 1, 157.82957928864874, 216.30950046508)">
    <path d="M11.6067 8.83984V12.6596H10.5801C8.80005 12.6596 7.8356 14.7443 8.98814 16.1008L13.4079 21.3045C14.2417 22.2865 15.7581 22.2865 16.5918 21.3045L21.0116 16.1008C22.1641 14.7443 21.1997 12.6596 19.4196 12.6596H18.393V2.47715C18.393 1.375 17.4995 0.482032 16.3979 0.482032H13.6018C12.5002 0.482032 11.6067 1.375 11.6067 2.47715V7.08438" stroke="#0D6363" stroke-miterlimit="10" stroke-linecap="round" stroke-linejoin="round" style="fill: rgb(255, 255, 255);"/>
    <path d="M24.6082 29.5195H28.0869C28.9008 29.5195 29.5605 28.8592 29.5605 28.0453V21.6598C29.5605 20.8459 28.9008 20.1861 28.0869 20.1861H25.9377C25.1238 20.1861 24.4641 20.8459 24.4641 21.6598V24.0703C24.4641 24.8842 23.8037 25.5439 22.9898 25.5439H7.01016C6.19629 25.5439 5.53594 24.8842 5.53594 24.0703V21.6598C5.53594 20.8459 4.87617 20.1861 4.06231 20.1861H1.91309C1.09922 20.1861 0.439453 20.8459 0.439453 21.6598V28.0453C0.439453 28.8592 1.09922 29.5195 1.91309 29.5195H22.8527" stroke="#0D6363" stroke-miterlimit="10" stroke-linecap="round" stroke-linejoin="round" style="fill: rgb(255, 255, 255);"/>
  </g>
</svg>