<?xml version="1.0" encoding="utf-8"?>
<svg viewBox="339.5016 182.7274 30 18.3877" xmlns="http://www.w3.org/2000/svg">
  <defs>
    <clipPath id="clip0_1758_932">
      <rect width="30" height="30" fill="white"/>
    </clipPath>
  </defs>
  <g clip-path="url(#clip0_1758_932)" transform="matrix(1, 0, 0, 1, 339.50156651441927, 176.9207206046795)">
    <path d="M29.8968 14.6255C29.4793 13.9232 29.0199 13.2471 28.5315 12.616C28.4593 12.5257 28.3544 12.4674 28.2396 12.4536C28.1248 12.4399 28.0091 12.4719 27.9177 12.5427C27.8262 12.6135 27.7663 12.7174 27.7508 12.832C27.7353 12.9466 27.7655 13.0627 27.8348 13.1553C28.2839 13.7355 28.7076 14.356 29.0947 15.0007C27.4886 17.6757 25.3861 19.7683 22.8448 21.2205C21.9487 21.7326 21.0049 22.1564 20.0268 22.4858C22.4333 20.8644 24.0194 18.1143 24.0194 15.0007C24.0194 11.8888 22.4352 9.14003 20.0309 7.51827C22.2162 8.25714 24.2562 9.47689 26.0072 11.1336C26.0925 11.2117 26.205 11.2531 26.3205 11.249C26.436 11.2449 26.5453 11.1955 26.6248 11.1115C26.7042 11.0275 26.7475 10.9157 26.7452 10.8001C26.743 10.6845 26.6954 10.5745 26.6127 10.4937C22.8284 6.913 17.7624 5.26265 12.7133 5.96554C10.1964 6.31593 7.83652 7.21804 5.69908 8.64661C3.4513 10.149 1.56851 12.1607 0.103139 14.6255C0.0356321 14.739 0 14.8686 0 15.0007C0 15.1327 0.0356321 15.2623 0.103139 15.3758C1.79363 18.2194 4.01919 20.4431 6.71814 21.9855C9.24675 23.4305 12.1106 24.1943 15 24.1943C17.8894 24.1943 20.7533 23.4305 23.2819 21.9855C25.9808 20.4432 28.2064 18.2194 29.8968 15.3759C29.9644 15.2624 30 15.1328 30 15.0007C30 14.8686 29.9644 14.739 29.8968 14.6255ZM6.86164 15.0006C6.86164 14.6848 6.87997 14.3664 6.91601 14.0545C6.92943 13.9385 6.89621 13.8218 6.82364 13.7303C6.75107 13.6387 6.64511 13.5797 6.52906 13.5663C6.28701 13.5379 6.0688 13.7116 6.04085 13.9533C6.00075 14.301 5.98066 14.6507 5.98068 15.0007C5.98068 18.1144 7.56669 20.8644 9.9732 22.4858C8.99512 22.1564 8.05138 21.7326 7.15531 21.2205C4.6138 19.7683 2.51146 17.676 0.905346 15.0008C2.29648 12.684 4.0738 10.7928 6.18874 9.37921C7.38716 8.57817 8.65953 7.95339 9.99212 7.50667C8.6321 8.41487 7.51466 9.68964 6.80527 11.2284C6.75636 11.3345 6.75159 11.4557 6.79203 11.5653C6.83247 11.6749 6.91479 11.7639 7.02089 11.8128C7.12699 11.8618 7.24818 11.8665 7.35779 11.8261C7.4674 11.7856 7.55645 11.7033 7.60537 11.5972C8.93152 8.72091 11.8341 6.86237 15.0001 6.86237C19.4875 6.86237 23.1385 10.5132 23.1385 15.0008C23.1385 19.4883 19.4876 23.1391 15.0001 23.1391C10.5126 23.1391 6.86164 19.4881 6.86164 15.0006Z" style="fill: rgb(255, 255, 255);"/>
    <path d="M18.4981 13.3815C18.4981 12.253 17.58 11.335 16.4515 11.335C15.8471 11.335 15.3032 11.5985 14.9283 12.0165C14.8947 12.0155 14.8612 12.0138 14.8273 12.0138C12.9931 12.0138 11.501 13.506 11.501 15.3402C11.501 17.1744 12.9932 18.6666 14.8273 18.6666C16.6615 18.6666 18.1537 17.1744 18.1537 15.3402C18.1537 15.0946 18.1266 14.8552 18.0757 14.6246C18.3403 14.2797 18.4981 13.8488 18.4981 13.3815ZM14.8274 17.7855C13.479 17.7855 12.3821 16.6885 12.3821 15.3402C12.3821 14.1175 13.284 13.1016 14.4574 12.9228C14.4227 13.0733 14.4051 13.2272 14.4049 13.3816C14.4049 14.51 15.323 15.4281 16.4515 15.4281C16.7424 15.4281 17.019 15.3667 17.2697 15.2569C17.2707 15.2847 17.2727 15.3122 17.2727 15.3402C17.2728 16.6886 16.1758 17.7855 14.8274 17.7855ZM16.4515 14.5471C15.8088 14.5471 15.286 14.0242 15.286 13.3815C15.286 12.7389 15.8088 12.216 16.4515 12.216C17.0942 12.216 17.6171 12.7388 17.6171 13.3815C17.6171 14.0242 17.0942 14.5471 16.4515 14.5471Z" style="fill: rgb(255, 255, 255);"/>
  </g>
</svg>