<?xml version="1.0" encoding="utf-8"?>
<svg viewBox="232.6259 179.696 29.121 19.6273" xmlns="http://www.w3.org/2000/svg">
  <defs>
    <clipPath id="clip0_1758_916">
      <rect width="30" height="30" fill="white"/>
    </clipPath>
  </defs>
  <g clip-path="url(#clip0_1758_916)" transform="matrix(1, 0, 0, 1, 232.18648458082913, 174.5097708257963)">
    <mask id="mask0_1758_916" style="mask-type:luminance" maskUnits="userSpaceOnUse" x="0" y="0" width="30" height="30">
      <path d="M29.4999 29.5V0.500088H0.5V29.5H29.4999Z" fill="white" stroke="white"/>
    </mask>
    <g mask="url(#mask0_1758_916)">
      <path d="M13.247 12.4018L16.1383 14.2605C16.6765 14.6065 16.6765 15.3932 16.1383 15.7391L8.54025 20.6235C7.95531 20.9995 7.18609 20.5796 7.18609 19.8842V10.1155C7.18609 9.42013 7.95531 9.00013 8.54025 9.37612L11.864 11.5128M22.4979 10.5976L28.2063 6.85132C28.7912 6.47533 29.5605 6.89527 29.5605 7.59066V22.409C29.5605 23.1044 28.7912 23.5244 28.2063 23.1483L22.4684 19.3943M22.3409 11.9529V6.94402C22.3409 5.97318 21.5538 5.18621 20.583 5.18621H8.35797M6.60016 5.18621H2.19726C1.22648 5.18621 0.439453 5.97318 0.439453 6.94402V23.0557C0.439453 24.0265 1.22648 24.8135 2.19726 24.8135H20.583C21.5538 24.8135 22.3409 24.0265 22.3409 23.0557V13.7108" stroke="#0D6363" stroke-miterlimit="10" stroke-linecap="round" stroke-linejoin="round" style="fill: rgb(255, 255, 255);"/>
    </g>
  </g>
</svg>