<svg id="Layer_1" data-name="Layer 1" xmlns="http://www.w3.org/2000/svg" viewBox="0 0 962.16 73.4"><title>BE Wordmark with R Final</title><path d="M777.7,348.74H748.9v-28.6H775c4.3,0,6.3.9,6.3,1l.7.3v-9.5l-.7.3a19,19,0,0,1-6.2,1H748.8v-23.6h30.4a13.57,13.57,0,0,1,7.2,1.7l.8.5V283l-48.4-.2.4.7a19.31,19.31,0,0,1,1.9,7.8v55a20,20,0,0,1-1.9,8.2l-.4.7H778l9.2.2v-9.1l-.7.4A19.66,19.66,0,0,1,777.7,348.74Zm-493.4-3.3v-53.6c0-3.6.1-8.5.2-8.6v-1H274.3l.1.4c0,.1,2.1,5.6,2.1,8.4v54.7c0,4-2.1,8.6-2.1,8.7l-.3.7h12.6l-.3-.7C286.4,354.34,284.3,349.74,284.3,345.44Zm166.2,0v-53.6c0-3.6.1-8.5.2-8.6v-1H440.5l.1.4c0,.1,2.1,5.6,2.1,8.4v54.7c0,4-2.1,8.6-2.1,8.7l-.3.7h12.6l-.3-.7c0-.1-2.1-4.7-2.1-9Zm-94.8.3a13.44,13.44,0,0,1-7.9,2.3H323v-65.3H312.3l.5.8s2.5,4.3,2.5,8.3v53.8c0,4.5-2.5,8.7-2.5,8.8l-.5.8h44.2v-10.1Zm64.6,0a13.44,13.44,0,0,1-7.9,2.3H386.6v-65.3H375.9l.5.8s2.5,4.3,2.5,8.3v53.8c0,4.5-2.5,8.7-2.5,8.8l-.5.8h45.2v-10.1l-.8.6Zm188.1-62.3.4-.7H597.1l.4.7a14.32,14.32,0,0,1,1.6,6.1v49.7l-37.4-56.3-.1-.2H549.9l3,4.3v60.7a17.58,17.58,0,0,1-1.4,6.7l-.4.7h11.3l-.4-.7a15.8,15.8,0,0,1-1.5-6.2v-52.4l39.5,59.1.1.2h8.6l-1.9-3.6c0-3,.1-58.8.1-62.1A14.29,14.29,0,0,1,608.4,283.44Zm21.2,8.8a11.56,11.56,0,0,1,6.8-2.2h16.5v55.1a25.49,25.49,0,0,1-1.7,9.3l-.3.7h12.2l-.4-.7a22.54,22.54,0,0,1-2.1-9.3V290h15.6c5.5,0,7.7,2.3,7.7,2.3v-9.7H629.5l.1,9.6Zm312.7,0a11.56,11.56,0,0,1,6.8-2.2h16.5v55.1a25.49,25.49,0,0,1-1.7,9.3l-.3.7h12.2l-.4-.7a22.54,22.54,0,0,1-2.1-9.3V290h15.6c5.5,0,7.7,2.3,7.7,2.3v-9.7H942.2Zm-770.8,23.4a16.53,16.53,0,0,0,8-13.8c0-11.8-10.3-18.8-20.4-18.8H136.4l.2.7c0,.1,2,6.3,2,9.1v51.9c0,4.7-3,9.9-3,10l-.4.7h28.6c13.6,0,22.4-8.3,22.4-21.1C186.2,325.24,178.8,317.64,171.5,315.64Zm-17.3-1.9-7.8-.1v-24.2h12.7c6,0,12.5,5,12.5,12.3,0,8.3-6.6,12-15.2,12Zm3.1,6.6,3-.1c12.1,0,17.8,7.2,17.8,14.1,0,9.9-5.1,14.7-15.7,14.7h-16v-28.6Zm372.1,27.6c-.8-2.6-22.4-62.1-23.3-64.6l-.1-.3h-9.4l1.4,3.3c-1.3,3.6-21.3,58.8-22.1,60.8a40.62,40.62,0,0,1-4.1,7.5l-.5.8h11l-.1-.6a10.06,10.06,0,0,1,.7-5l5.6-16-.5-.2h28.7l-.5.2,5.8,16.6a8.26,8.26,0,0,1,.6,4.4l-.1.6h11.8l-.9-.9A23,23,0,0,1,529.4,347.94Zm-27-53.8,12,34.1h-24Zm358.1,53.8c-.8-2.6-22.4-63-23.3-65.6l-.1-.3h-9.3l1.3,4.3c-1.2,3.4-21.3,58.8-22.1,60.8a40.62,40.62,0,0,1-4.1,7.5l-.5.8h11l-.1-.6a10.06,10.06,0,0,1,.7-5l5.6-16-.5-.2h28.7l-.5.2,5.8,16.6a8.26,8.26,0,0,1,.6,4.4l-.1.6h11.8l-.9-.9c.1,0-2.9-3-4-6.6Zm-15.1-19.7h-24l12-34.1Zm223.3,17.9v-55.6c0-4.7,1.9-7,1.9-7l.6-.8h-12.7l.5.8a14.4,14.4,0,0,1,1.9,7.6v23.3h-35.3v-23.3a14.84,14.84,0,0,1,1.9-7.6l.5-.8h-12.6l.5.8a16.58,16.58,0,0,1,1.9,7.8v53.8a23.82,23.82,0,0,1-1.9,9.3l-.4.7h12.3l-.4-.7a23.62,23.62,0,0,1-1.9-9.2v-23.9h35.3v24.9c0,6-1.8,8-1.9,8l-.9.9h12.9l-.5-.8a19,19,0,0,1-1.7-8.2Zm-816,2c-3.5-3.6-16.6-21.9-19-25.2,4.6-2.1,11.3-8.8,11.3-19,0-15.5-11.9-21-22.1-21H203.3l.2.7c0,.1,2.4,6.7,2.4,9.1v52.7a22.42,22.42,0,0,1-2.4,9.2l-.3.8h10.5v-30.5l12.3-.1c.7,1.1,17.7,25.9,21.9,28.3a16,16,0,0,0,8.1,2.3,11.35,11.35,0,0,0,4.2-.7l1.1-.4-1.1-.5C260.1,353.94,256.8,352.34,252.7,348.14Zm-39-29.7v-29h8.9c7.1,0,14.6,4.6,14.6,14.6,0,8.5-5,14.2-14.8,14.4Zm716.4,29.7c-3.5-3.6-16.6-21.9-19-25.2,4.6-2.1,11.3-8.8,11.3-19,0-15.5-11.9-21-22.1-21H880.6l.2.7c0,.1,2.4,6.7,2.4,9.1v52.7a22.42,22.42,0,0,1-2.4,9.2l-.4.7h10.5v-30.4l12.3-.1c.7,1.1,17.7,25.9,21.9,28.3a16,16,0,0,0,8.1,2.3,11.35,11.35,0,0,0,4.2-.7l1.1-.4-1.1-.5C937.5,353.94,934.2,352.34,930.1,348.14Zm-39-29.7v-29H900c7.1,0,14.6,4.6,14.6,14.6,0,8.5-5,14.2-14.8,14.4Z" transform="translate(-135.2 -282.04)"/><path d="M1088.32,283.9a7.54,7.54,0,1,1-7.54,7.54,7.55,7.55,0,0,1,7.54-7.54m0-1.5a9,9,0,1,0,9,9,9,9,0,0,0-9-9Z" transform="translate(-135.2 -282.04)"/><path d="M1085.16,286.73h3.56a6.41,6.41,0,0,1,1.34.13,3.2,3.2,0,0,1,1.1.46,2.16,2.16,0,0,1,.75.86,2.83,2.83,0,0,1,.28,1.34,2.7,2.7,0,0,1-.5,1.66,2.29,2.29,0,0,1-1.48.86l2.34,3.89h-2.44l-1.92-3.68h-1v3.68h-2Zm2,3.81h1.2l.57,0a2.31,2.31,0,0,0,.56-.12,1,1,0,0,0,.41-.31,1,1,0,0,0,.16-.58,1,1,0,0,0-.14-.56,1,1,0,0,0-.37-.32,1.9,1.9,0,0,0-.51-.15,5.28,5.28,0,0,0-.55,0h-1.33Z" transform="translate(-135.2 -282.04)"/></svg>